<svg width="45" height="45" viewBox="0 0 55 54" fill="none" xmlns="http://www.w3.org/2000/svg">
<path d="M48.5119 29.646C48.625 28.782 48.7098 27.918 48.7098 27C48.7098 26.082 48.625 25.218 48.5119 24.354L54.4772 19.899C55.0144 19.494 55.1557 18.765 54.8165 18.171L49.1622 8.829C48.9077 8.397 48.4271 8.154 47.9182 8.154C47.7486 8.154 47.579 8.181 47.4376 8.235L40.398 10.935C38.9279 9.855 37.3447 8.964 35.6202 8.289L34.5458 1.134C34.461 0.486 33.8673 0 33.1605 0H21.852C21.1452 0 20.5515 0.486 20.4667 1.134L19.3923 8.289C17.6678 8.964 16.0846 9.882 14.6145 10.935L7.57486 8.235C7.40523 8.181 7.2356 8.154 7.06598 8.154C6.58536 8.154 6.10475 8.397 5.8503 8.829L0.19601 18.171C-0.171519 18.765 -0.00188941 19.494 0.535268 19.899L6.50055 24.354C6.38746 25.218 6.30265 26.109 6.30265 27C6.30265 27.891 6.38746 28.782 6.50055 29.646L0.535268 34.101C-0.00188941 34.506 -0.143247 35.235 0.19601 35.829L5.8503 45.171C6.10475 45.603 6.58536 45.846 7.09425 45.846C7.26388 45.846 7.4335 45.819 7.57486 45.765L14.6145 43.065C16.0846 44.145 17.6678 45.036 19.3923 45.711L20.4667 52.866C20.5515 53.514 21.1452 54 21.852 54H33.1605C33.8673 54 34.461 53.514 34.5458 52.866L35.6202 45.711C37.3447 45.036 38.9279 44.118 40.398 43.065L47.4376 45.765C47.6073 45.819 47.7769 45.846 47.9465 45.846C48.4271 45.846 48.9077 45.603 49.1622 45.171L54.8165 35.829C55.1557 35.235 55.0144 34.506 54.4772 34.101L48.5119 29.646ZM42.9142 25.029C43.0273 25.866 43.0555 26.433 43.0555 27C43.0555 27.567 42.999 28.161 42.9142 28.971L42.5184 32.022L45.0346 33.912L48.0879 36.18L46.1089 39.447L42.5184 38.07L39.5782 36.936L37.0337 38.772C35.8181 39.636 34.6589 40.284 33.4998 40.743L30.503 41.904L30.0507 44.955L29.4852 48.6H25.5272L24.9901 44.955L24.5377 41.904L21.541 40.743C20.3253 40.257 19.1944 39.636 18.0636 38.826L15.4909 36.936L12.4941 38.097L8.90362 39.474L6.92462 36.207L9.97794 33.939L12.4941 32.049L12.0983 28.998C12.0135 28.161 11.9569 27.54 11.9569 27C11.9569 26.46 12.0135 25.839 12.0983 25.029L12.4941 21.978L9.97794 20.088L6.92462 17.82L8.90362 14.553L12.4941 15.93L15.4343 17.064L17.9788 15.228C19.1944 14.364 20.3536 13.716 21.5127 13.257L24.5095 12.096L24.9618 9.045L25.5272 5.4H29.457L29.9941 9.045L30.4465 12.096L33.4433 13.257C34.6589 13.743 35.7898 14.364 36.9206 15.174L39.4933 17.064L42.4901 15.903L46.0806 14.526L48.0596 17.793L45.0346 20.088L42.5184 21.978L42.9142 25.029ZM27.5062 16.2C21.2583 16.2 16.1977 21.033 16.1977 27C16.1977 32.967 21.2583 37.8 27.5062 37.8C33.7542 37.8 38.8148 32.967 38.8148 27C38.8148 21.033 33.7542 16.2 27.5062 16.2ZM27.5062 32.4C24.3964 32.4 21.852 29.97 21.852 27C21.852 24.03 24.3964 21.6 27.5062 21.6C30.6161 21.6 33.1605 24.03 33.1605 27C33.1605 29.97 30.6161 32.4 27.5062 32.4Z" fill="white"/>
</svg>
